<?xml version="1.0" encoding="utf-8"?>
<!-- Generator: Adobe Illustrator 22.0.1, SVG Export Plug-In . SVG Version: 6.00 Build 0)  -->
<svg version="1.1" xmlns="http://www.w3.org/2000/svg" xmlns:xlink="http://www.w3.org/1999/xlink" x="0px" y="0px"
	 viewBox="211 -284 1994 592" style="enable-background:new 211 -284 1994 592;" xml:space="preserve">
<style type="text/css">
	.st0{fill:#FFFFFF;}
	.st1{fill:#F47921;}
	.st2{fill:#FF8C04;}
	.st3{fill:#0059AB;}
</style>
<g id="Layer_2">
	<rect x="211" y="-284" width="1994" height="592"/>
	<g>
		<g>
			<g>
				<path class="st0" d="M796.1-127.2h34c8.2,0,16.1,0.9,23.5,2.8c7.4,1.8,13.9,4.8,19.4,8.9c5.5,4.1,9.9,9.5,13.2,16.1
					c3.2,6.6,4.9,14.6,4.9,24c0,8.3-1.6,15.7-4.7,22c-3.2,6.4-7.4,11.7-12.7,16c-5.3,4.3-11.5,7.6-18.5,9.8c-7,2.2-14.3,3.3-22,3.3
					h-37.1V-127.2z M818.8-45.2h11.8c5.2,0,10.1-0.5,14.6-1.6c4.5-1.1,8.4-2.8,11.7-5.3c3.3-2.5,5.9-5.7,7.8-9.7
					c1.9-4,2.8-8.9,2.8-14.8c0-5-0.9-9.4-2.8-13.2c-1.9-3.7-4.4-6.8-7.6-9.2c-3.2-2.4-7-4.2-11.3-5.5c-4.3-1.2-8.8-1.8-13.6-1.8
					h-13.4V-45.2z"/>
				<path class="st0" d="M993.3-63.9c0,6.1-0.9,11.7-2.8,16.9c-1.8,5.1-4.6,9.6-8.2,13.4c-3.6,3.8-8.2,6.7-13.6,8.9
					c-5.4,2.1-11.7,3.2-18.8,3.2c-7.2,0-13.5-1.1-18.9-3.2c-5.4-2.1-10-5.1-13.6-8.9c-3.6-3.8-6.4-8.2-8.2-13.4
					c-1.8-5.1-2.8-10.8-2.8-16.9v-63.3h22.7v62.4c0,3.2,0.5,6.2,1.5,8.9c1,2.7,2.4,5.1,4.3,7.1c1.8,2,4,3.5,6.6,4.7
					c2.6,1.1,5.4,1.7,8.4,1.7c3,0,5.8-0.6,8.3-1.7c2.5-1.1,4.7-2.7,6.5-4.7c1.8-2,3.3-4.3,4.3-7.1c1-2.7,1.5-5.7,1.5-8.9v-62.4h22.7
					V-63.9z"/>
				<path class="st0" d="M1014.3-127.2h38.3c5.3,0,10.4,0.5,15.1,1.5c4.8,1,8.9,2.6,12.4,5c3.5,2.4,6.4,5.6,8.4,9.6
					c2.1,4,3.1,9.1,3.1,15.2c0,6-1,11.1-2.9,15.1c-1.9,4.1-4.6,7.3-8,9.7c-3.4,2.4-7.4,4.1-12.1,5.2c-4.7,1-9.7,1.5-15.1,1.5H1037
					v40.1h-22.7V-127.2z M1037-83.6h15.1c2,0,4-0.2,5.9-0.6c1.9-0.4,3.6-1,5.1-2c1.5-0.9,2.7-2.2,3.6-3.8c0.9-1.6,1.4-3.6,1.4-6
					c0-2.6-0.6-4.7-1.8-6.3c-1.2-1.6-2.8-2.8-4.7-3.7s-4-1.4-6.3-1.7c-2.3-0.2-4.6-0.4-6.7-0.4H1037V-83.6z"/>
				<path class="st0" d="M1106.8-127.2h22.7v82h42v20.9h-64.7V-127.2z"/>
				<path class="st0" d="M1183.7-127.2h22.7v103h-22.7V-127.2z"/>
				<path class="st0" d="M1294.4-100.4c-2.2-2.7-5-4.8-8.2-6.3c-3.3-1.5-7-2.2-11.3-2.2c-4.3,0-8.2,0.8-11.9,2.5
					c-3.6,1.7-6.8,4-9.5,6.9c-2.7,3-4.8,6.5-6.3,10.5c-1.5,4.1-2.3,8.5-2.3,13.2c0,4.9,0.8,9.3,2.3,13.3c1.5,4,3.6,7.5,6.2,10.5
					c2.6,3,5.7,5.3,9.2,6.9c3.5,1.6,7.3,2.5,11.4,2.5c4.7,0,8.8-1,12.4-2.9c3.6-1.9,6.5-4.7,8.9-8.1l18.9,14.1
					c-4.4,6.1-9.9,10.6-16.6,13.5c-6.7,2.9-13.6,4.4-20.7,4.4c-8.1,0-15.5-1.3-22.3-3.8c-6.8-2.5-12.7-6.1-17.6-10.8
					c-4.9-4.7-8.8-10.4-11.6-17.1c-2.8-6.7-4.1-14.2-4.1-22.4c0-8.2,1.4-15.7,4.1-22.4c2.8-6.7,6.6-12.4,11.6-17.1
					c4.9-4.7,10.8-8.3,17.6-10.8c6.8-2.5,14.2-3.8,22.3-3.8c2.9,0,5.9,0.3,9.1,0.8c3.2,0.5,6.3,1.4,9.3,2.5s6,2.7,8.8,4.7
					c2.8,1.9,5.3,4.3,7.6,7.1L1294.4-100.4z"/>
				<path class="st0" d="M1360.6-127.2h18.8l44.8,103h-25.6l-8.9-21.8h-40l-8.6,21.8h-25L1360.6-127.2z M1369.3-97.2l-12.5,32h25.2
					L1369.3-97.2z"/>
				<path class="st0" d="M1441.1-107.1h-29.4v-20.1h81.5v20.1h-29.4v82.9h-22.7V-107.1z"/>
				<path class="st0" d="M1505.5-127.2h70v20.9h-47.3V-87h44.7v20.9h-44.7v20.9h49.9v20.9h-72.6V-127.2z"/>
				<path class="st1" d="M1639.3-127.2h38.3c5.3,0,10.4,0.5,15.1,1.5c4.8,1,8.9,2.6,12.4,5c3.5,2.4,6.4,5.6,8.4,9.6
					c2.1,4,3.1,9.1,3.1,15.2c0,6-1,11.1-2.9,15.1c-1.9,4.1-4.6,7.3-8,9.7c-3.4,2.4-7.4,4.1-12.1,5.2c-4.7,1-9.7,1.5-15.1,1.5H1662
					v40.1h-22.7V-127.2z M1662-83.6h15.1c2,0,4-0.2,5.9-0.6c1.9-0.4,3.6-1,5.1-2c1.5-0.9,2.7-2.2,3.6-3.8c0.9-1.6,1.4-3.6,1.4-6
					c0-2.6-0.6-4.7-1.8-6.3c-1.2-1.6-2.8-2.8-4.7-3.7s-4-1.4-6.3-1.7c-2.3-0.2-4.6-0.4-6.7-0.4H1662V-83.6z"/>
				<path class="st1" d="M1731-127.2h22.7v38.4h44.1v-38.4h22.7v103h-22.7v-44.5h-44.1v44.5H1731V-127.2z"/>
				<path class="st1" d="M1835.8-75.7c0-8.2,1.4-15.7,4.1-22.4c2.8-6.7,6.6-12.4,11.6-17.1c4.9-4.7,10.8-8.3,17.6-10.8
					c6.8-2.5,14.2-3.8,22.3-3.8c8,0,15.5,1.3,22.3,3.8c6.8,2.5,12.7,6.1,17.6,10.8c4.9,4.7,8.8,10.4,11.6,17.1
					c2.8,6.7,4.1,14.2,4.1,22.4c0,8.2-1.4,15.7-4.1,22.4c-2.8,6.7-6.6,12.4-11.6,17.1c-4.9,4.7-10.8,8.3-17.6,10.8
					c-6.8,2.5-14.2,3.8-22.3,3.8c-8.1,0-15.5-1.3-22.3-3.8c-6.8-2.5-12.7-6.1-17.6-10.8c-4.9-4.7-8.8-10.4-11.6-17.1
					C1837.2-60,1835.8-67.5,1835.8-75.7z M1859.4-75.7c0,4.9,0.8,9.3,2.3,13.3c1.5,4,3.7,7.5,6.5,10.5c2.8,3,6.2,5.3,10.1,6.9
					c3.9,1.6,8.3,2.5,13.2,2.5c4.8,0,9.2-0.8,13.2-2.5c3.9-1.6,7.3-4,10.1-6.9c2.8-3,5-6.4,6.5-10.5c1.5-4,2.3-8.5,2.3-13.3
					c0-4.8-0.8-9.2-2.3-13.2c-1.5-4.1-3.7-7.6-6.5-10.5c-2.8-3-6.2-5.3-10.1-6.9c-3.9-1.6-8.3-2.5-13.2-2.5c-4.9,0-9.2,0.8-13.2,2.5
					c-3.9,1.7-7.3,4-10.1,6.9c-2.8,3-5,6.5-6.5,10.5C1860.1-84.9,1859.4-80.5,1859.4-75.7z"/>
				<path class="st1" d="M1982.3-107.1h-29.4v-20.1h81.5v20.1H2005v82.9h-22.7V-107.1z"/>
				<path class="st1" d="M2040.3-75.7c0-8.2,1.4-15.7,4.1-22.4c2.8-6.7,6.6-12.4,11.6-17.1c4.9-4.7,10.8-8.3,17.6-10.8
					c6.8-2.5,14.2-3.8,22.3-3.8c8,0,15.5,1.3,22.3,3.8c6.8,2.5,12.7,6.1,17.6,10.8c4.9,4.7,8.8,10.4,11.6,17.1
					c2.8,6.7,4.1,14.2,4.1,22.4c0,8.2-1.4,15.7-4.1,22.4c-2.8,6.7-6.6,12.4-11.6,17.1c-4.9,4.7-10.8,8.3-17.6,10.8
					c-6.8,2.5-14.2,3.8-22.3,3.8c-8.1,0-15.5-1.3-22.3-3.8c-6.8-2.5-12.7-6.1-17.6-10.8c-4.9-4.7-8.8-10.4-11.6-17.1
					C2041.7-60,2040.3-67.5,2040.3-75.7z M2063.9-75.7c0,4.9,0.8,9.3,2.3,13.3c1.5,4,3.7,7.5,6.5,10.5c2.8,3,6.2,5.3,10.1,6.9
					c3.9,1.6,8.3,2.5,13.2,2.5c4.8,0,9.2-0.8,13.2-2.5c3.9-1.6,7.3-4,10.1-6.9c2.8-3,5-6.4,6.5-10.5c1.5-4,2.3-8.5,2.3-13.3
					c0-4.8-0.8-9.2-2.3-13.2c-1.5-4.1-3.7-7.6-6.5-10.5c-2.8-3-6.2-5.3-10.1-6.9c-3.9-1.6-8.3-2.5-13.2-2.5c-4.9,0-9.2,0.8-13.2,2.5
					c-3.9,1.7-7.3,4-10.1,6.9c-2.8,3-5,6.5-6.5,10.5C2064.7-84.9,2063.9-80.5,2063.9-75.7z"/>
			</g>
		</g>
		<path class="st0" d="M1909.1-93.9c2.3,0,4.2,1.9,4.2,4.2c0,2.3-1.9,4.2-4.2,4.2s-4.2-1.9-4.2-4.2
			C1904.9-92,1906.8-93.9,1909.1-93.9z M1866.5-60.9l14.9-32.1c0.6-1.1,1.6-1.3,2.3,0l11.1,17.6l5.5-6.3c1.1-1.2,2.1-1.4,3.1,0
			l12.5,20.9H1866.5z"/>
		<path class="st0" d="M2113.1-93.9c2.3,0,4.2,1.9,4.2,4.2c0,2.3-1.9,4.2-4.2,4.2c-2.3,0-4.2-1.9-4.2-4.2
			C2108.9-92,2110.8-93.9,2113.1-93.9z M2070.5-60.9l14.9-32.1c0.6-1.1,1.6-1.3,2.3,0l11.1,17.6l5.5-6.3c1.1-1.2,2.1-1.4,3.1,0
			l12.5,20.9H2070.5z"/>
	</g>
	<g>
		<path class="st0" d="M942.9,61.5c-4.5-5.5-10-9.7-16.6-12.6c-6.6-2.9-14.2-4.4-22.8-4.4c-8.6,0-16.6,1.7-24,5
			c-7.3,3.3-13.7,8-19.1,14c-5.4,6-9.6,13.1-12.6,21.3c-3,8.2-4.6,17.1-4.6,26.7c0,9.8,1.5,18.8,4.6,26.9c3,8.1,7.2,15.2,12.5,21.2
			c5.3,6,11.5,10.6,18.7,14c7.2,3.3,14.8,5,23.1,5c9.4,0,17.7-2,25-5.9c7.2-3.9,13.2-9.4,17.9-16.5l38.2,28.5
			c-8.8,12.3-20,21.5-33.5,27.3s-27.4,8.8-41.7,8.8c-16.3,0-31.3-2.5-45-7.6c-13.7-5.1-25.6-12.4-35.6-21.9
			c-10-9.5-17.8-21-23.4-34.5c-5.6-13.5-8.4-28.6-8.4-45.3c0-16.7,2.8-31.7,8.4-45.3c5.6-13.5,13.4-25,23.4-34.5
			c10-9.5,21.8-16.8,35.6-21.9c13.7-5.1,28.7-7.6,45-7.6c5.9,0,12,0.5,18.4,1.6c6.4,1.1,12.6,2.8,18.8,5.1
			c6.2,2.4,12.1,5.5,17.8,9.4c5.7,3.9,10.8,8.7,15.3,14.4L942.9,61.5z"/>
		<path class="st0" d="M1009.9,7.4h45.9v165.8h84.9v42.3h-130.8V7.4z"/>
		<path class="st0" d="M1167.7,7.4h141.4v42.3h-95.5v38.8h90.2v42.3h-90.2v42.3h100.8v42.3h-146.7V7.4z"/>
		<path class="st0" d="M1419.6,7.4h37.9l90.5,208.1h-51.7l-17.9-44.1h-80.8l-17.3,44.1h-50.6L1419.6,7.4z M1437.3,68l-25.3,64.7
			h50.9L1437.3,68z"/>
		<path class="st0" d="M1569,7.4h62.3l88.5,144.6h0.6V7.4h45.9v208.1h-60l-90.8-148.1h-0.6v148.1H1569V7.4z"/>
		<path class="st0" d="M1810.3,7.4h141.4v42.3h-95.5v38.8h90.2v42.3h-90.2v42.3H1957v42.3h-146.7V7.4z"/>
		<path class="st0" d="M1993.7,7.4h80.5c10.6,0,20.6,1,30.1,3.1c9.5,2.1,17.8,5.5,25,10.3c7.2,4.8,12.8,11.3,17,19.4
			c4.2,8.1,6.3,18.3,6.3,30.4c0,14.7-3.8,27.2-11.5,37.5s-18.8,16.8-33.5,19.5l52.9,87.9h-55l-43.5-83.2h-22.6v83.2h-45.9V7.4z
			 M2039.5,93.5h27c4.1,0,8.5-0.1,13.1-0.4c4.6-0.3,8.8-1.2,12.5-2.6c3.7-1.5,6.8-3.8,9.3-6.9c2.4-3.1,3.7-7.5,3.7-13.2
			c0-5.3-1.1-9.5-3.2-12.6c-2.2-3.1-4.9-5.5-8.2-7.2c-3.3-1.7-7.2-2.8-11.5-3.4c-4.3-0.6-8.5-0.9-12.6-0.9h-30V93.5z"/>
	</g>
</g>
<g id="Layer_1">
	<g id="XMLID_77_">
		<path id="XMLID_82_" class="st2" d="M763,12c0,141.4-114.6,256-256,256c-141.4,0-256-114.6-256-256s114.6-256,256-256
			C648.4-244,763-129.4,763,12z"/>
		<path id="XMLID_81_" class="st3" d="M507.7-189.1c111.7,0,202.2,90.5,202.2,202.2c0,111.7-90.5,202.3-202.2,202.3
			c-111.7,0-202.2-90.5-202.2-202.3C305.5-98.5,396-189.1,507.7-189.1z"/>
		<path id="XMLID_80_" class="st0" d="M328.2-167.4l13.4,178L559.1-5.8l-13.4-178L328.2-167.4z M504.5-152.1
			c8.4-0.6,15.9,5.7,16.5,14.2c0.6,8.4-5.7,15.8-14.2,16.5c-8.5,0.6-15.8-5.8-16.5-14.2C489.7-144.1,496-151.5,504.5-152.1z
			 M357.9-19.9l45.5-121.4c1.8-4.1,5.5-5.2,8.5-0.6l45.2,61.2l18.4-24.8c3.8-4.7,7.2-5.7,11.4-0.8l51.5,72.9L357.9-19.9z"/>
		<path id="XMLID_79_" class="st0" d="M484.7,11.9l-13.2,165l201.6,16.1l13.1-165L484.7,11.9z M644,51.1c7.8,0.6,13.7,7.5,13.1,15.4
			c-0.6,7.8-7.5,13.7-15.3,13c-7.9-0.6-13.7-7.5-13.1-15.3C629.3,56.3,636.2,50.4,644,51.1z M490.9,151.3l59-104.6
			c2.2-3.5,5.8-4,7.9,0.6l32.7,62.5l20.4-20c4.1-3.8,7.4-4.3,10.5,0.8l36.8,74.1L490.9,151.3z"/>
		<path id="XMLID_78_" class="st2" d="M369.4,167.1L686.4-97c-8.6-13-18.5-24.9-29.7-35.6l-317,264.1
			C348.3,144.4,358.2,156.4,369.4,167.1z"/>
	</g>
	<g id="XMLID_76_">
	</g>
	<g id="XMLID_75_">
	</g>
	<g id="XMLID_74_">
	</g>
	<g id="XMLID_73_">
	</g>
	<g id="XMLID_72_">
	</g>
	<g id="XMLID_71_">
	</g>
	<g>
		<g>
			<path class="st0" d="M1079-191.2h-2.4v-1.6h6.7v1.6h-2.4v6.8h-1.9V-191.2z"/>
			<path class="st0" d="M1084.2-192.9h2.8l1.9,5.5h0l1.9-5.5h2.8v8.4h-1.9v-6.4h0l-2.2,6.4h-1.4l-2.1-6.4h0v6.4h-1.9V-192.9z"/>
		</g>
		<g>
			<path class="st0" d="M847.6-190.7l-19,33.2l-14.3,0l0.6-10.4l-5,10.5h-14.3l-0.8-26.1h10.9l-11.1-7.1H809l-2.9,22.4l9.2-22.4
				h11.3l-2.9,22.4l9.2-22.4H847.6z"/>
			<path class="st0" d="M873.6-168.7h-20.4l-0.5,2c-0.2,0.7-0.3,1.3-0.3,1.7c0,1.5,0.8,2.2,2.3,2.2c2.1,0,3.4-1.1,4-3.3h13.8
				c-3,5.9-9.4,8.8-19.3,8.8c-9.7,0-14.6-2.9-14.6-8.7c0-1.1,0.2-2.3,0.5-3.5l0.6-2.2c2.2-8.1,9-12.2,20.6-12.2
				c9.7,0,14.6,2.9,14.6,8.6c0,1.1-0.2,2.3-0.6,3.6L873.6-168.7z M860.7-173.4l0.3-0.9c0.2-0.6,0.3-1.2,0.3-1.7
				c0-1.5-0.7-2.3-2.3-2.3c-2.1,0-3.5,1.3-4.2,4l-0.3,0.9H860.7z"/>
			<path class="st0" d="M908.4-169.4c-2.2,8.1-8.2,12.2-18,12.2c-2.1,0-3.9-0.4-5.4-1.2l-0.3,1h-11.9l8.9-33.2h11.9l-2.1,8
				c1.8-0.7,3.8-1.1,6-1.1c8.1,0,12.1,2.7,12.1,8.1c0,1.2-0.2,2.6-0.6,4L908.4-169.4z M893.5-166.7l2-7.6c0.2-0.7,0.3-1.2,0.3-1.7
				c0-1.5-0.8-2.2-2.3-2.2c-2.1,0-3.5,1.3-4.2,4l-2,7.6c-0.2,0.7-0.3,1.2-0.3,1.7c0,1.5,0.8,2.2,2.3,2.2
				C891.4-162.8,892.8-164.1,893.5-166.7z"/>
			<path class="st0" d="M950.1-157.4h-14.2l4.8-17.8L930-161.9l-3.5-13.3l-4.8,17.8h-14.2l7-26.1h12.1l-10.2-7.1h14.2l3.5,13.4
				l10.7-13.4H959L950.1-157.4z"/>
			<path class="st0" d="M967.1-157.4h-14.2l7-26.1h12.1l-10.2-7.1H976L967.1-157.4z"/>
			<path class="st0" d="M999.9-157.4H988l4.5-16.9c0.2-0.7,0.3-1.2,0.3-1.7c0-1.5-0.8-2.2-2.3-2.2c-2.1,0-3.5,1.3-4.2,4l-4.5,16.8
				h-11.9l7-26.1h11.9l-0.2,0.9c1.9-0.7,4.4-1.1,7.6-1.1c5.7,0,8.6,2.2,8.6,6.7c0,1.1-0.2,2.4-0.6,3.9L999.9-157.4z"/>
			<path class="st0" d="M1034.5-157.4h-11.9l0.3-1c-1.9,0.8-3.9,1.2-6,1.2c-8.1,0-12.1-2.8-12.1-8.3c0-1.2,0.2-2.5,0.6-4l0.6-2.2
				c2.2-8.1,8.2-12.2,18-12.2c2.1,0,3.9,0.4,5.4,1.1l2.1-8h11.9L1034.5-157.4z M1025.1-166.7l2-7.5c0.2-0.7,0.3-1.2,0.3-1.7
				c0-1.5-0.8-2.2-2.3-2.2c-2.1,0-3.5,1.3-4.2,3.9l-2,7.5c-0.2,0.7-0.3,1.2-0.3,1.7c0,1.5,0.8,2.2,2.3,2.2
				C1023-162.8,1024.4-164.1,1025.1-166.7z"/>
			<path class="st0" d="M1075.2-175.5H1062c0.1-0.3,0.1-0.7,0.1-0.9c0-1.2-0.9-1.8-2.6-1.8c-2.6,0-3.9,0.7-3.9,2.2
				c0,1,1.5,1.7,4.5,2.2c4.7,0.8,7.7,1.5,8.9,2c2.4,1.1,3.6,2.6,3.6,4.7c0,0.5-0.1,1.1-0.2,1.7c-1.5,5.4-7.7,8.1-18.9,8.1
				c-10.2,0-15.2-2.8-14.9-8.3h13.3c-0.1,0.3-0.1,0.6-0.1,0.9c0,1.2,1,1.9,2.9,1.9c2.7,0,4-0.7,4-2.2c0-1-1.5-1.7-4.5-2.2
				c-4.7-0.8-7.6-1.5-8.9-2c-2.4-1-3.6-2.6-3.6-4.7c0-0.5,0.1-1.1,0.2-1.7c1.5-5.4,7.8-8.2,18.9-8.2
				C1070.7-183.8,1075.5-181,1075.2-175.5z"/>
		</g>
	</g>
</g>
</svg>
