<svg version="1.1" id="Layer_1" xmlns="http://www.w3.org/2000/svg" x="0" y="0" viewBox="0 0 192 192" style="enable-background:new 0 0 192 192" xml:space="preserve"><style>.st6{enable-background:new}.st8{fill:#fff}.st9{fill:#ccc}.st10{fill:#e6e6e6}</style><g id="XMLID_2_"><path id="XMLID_122_" d="M192 96c0 53-43 96-96 96S0 149 0 96 43 0 96 0s96 43 96 96z" style="fill:#bed73b;stroke:#006838;stroke-width:.6307"/><radialGradient id="XMLID_201_" cx="86.474" cy="86.995" r="143.273" gradientTransform="matrix(1.1105 0 0 1.1104 -.278 -.278)" gradientUnits="userSpaceOnUse"><stop offset="0" style="stop-color:#00aeef"/><stop offset=".085" style="stop-color:#009ae2"/><stop offset=".272" style="stop-color:#0075cb"/><stop offset=".459" style="stop-color:#0058b8"/><stop offset=".643" style="stop-color:#0044ab"/><stop offset=".825" style="stop-color:#0037a3"/><stop offset="1" style="stop-color:#0033a0"/></radialGradient><path id="XMLID_121_" d="M184.7 96c0 49-39.7 88.7-88.7 88.7S7.3 145 7.3 96 47 7.3 96 7.3 184.7 47 184.7 96z" style="fill:url(#XMLID_201_);stroke:#d0e17a;stroke-width:1.2614"/><path id="XMLID_120_" d="m94.8 95.4 83-31.6c-10.5-27.1-34-47.4-62.7-53.7L94.8 95.4z" style="fill:#00aeef"/><path id="XMLID_119_" d="M163.5 96c0 37.3-30.2 67.5-67.5 67.5S28.5 133.3 28.5 96 58.7 28.5 96 28.5s67.5 30.2 67.5 67.5z" style="fill:none;stroke:#00bdf2;stroke-width:2.4438"/><path id="XMLID_118_" d="M129.8 96c0 18.6-15.1 33.8-33.8 33.8-18.6 0-33.7-15.1-33.7-33.8 0-18.6 15.1-33.8 33.7-33.8s33.8 15.2 33.8 33.8z" style="fill:none;stroke:#00bdf2;stroke-width:1.2219"/><path id="XMLID_117_" d="M97.2 8.2h-2.4v86.6H8.2v2.4h86.6v86.6h2.4V97.2h86.6v-2.4H97.2V8.2z" style="fill:#6dcff6"/><g id="XMLID_60_"><g id="XMLID_113_"><g id="XMLID_114_" class="st6"><g id="XMLID_115_"><linearGradient id="XMLID_202_" gradientUnits="userSpaceOnUse" x1="61.067" y1="25.899" x2="80.3" y2="94.325"><stop offset="0" style="stop-color:#8dc63f"/><stop offset="1" style="stop-color:#006838"/></linearGradient><path id="XMLID_116_" d="M103.7 28.9c2-.7 4.1.7 4.5 2.9l9.6 48.9c.4 2.3-.9 4.6-2.9 5.3l-72.4 23.1c-2 .7-4.1-.7-4.5-2.9l-9.6-48.9c-.4-2.3.9-4.6 2.9-5.3l2.6-.8-.8-4c-.2-1 .4-2.1 1.3-2.4l23.1-7.4c.5-.2 1.3.3 1.6.5l5.1 3.6 39.5-12.6z" style="fill:url(#XMLID_202_)"/></g></g></g><g id="XMLID_66_"><g id="XMLID_102_"><g id="XMLID_103_"><g id="XMLID_108_"><path id="XMLID_112_" class="st8" d="M42.8 103c-.7.3-1.4 0-1.7-.7l-3-51.8c-.2-.7.2-1.4.9-1.7l68.8-31.3c.7-.3 1.5 0 1.7.7l4.6 55.6c.2.7-.2 1.4-.9 1.7L42.8 103z"/><path id="XMLID_109_" class="st9" d="M42.2 103.5c-.7 0-1.3-.4-1.5-1v-.1l-3-51.7c-.1-.4-.1-.8.1-1.2.2-.4.6-.7 1-.9l68.8-31.3c.9-.4 1.9.1 2.1.9v.1l4.6 55.5c.2.8-.2 1.8-1.1 2.1l-70.3 27.5c-.2.1-.4.1-.7.1zm-.7-1.2c.2.4.7.6 1.2.4L113 75.2c.5-.2.8-.7.7-1.2v-.1l-4.6-55.5c-.2-.4-.7-.6-1.2-.4L39.1 49.3c-.3.1-.5.3-.6.5-.1.2-.1.4-.1.7v.1l3.1 51.7z"/></g><g id="XMLID_104_"><path id="XMLID_105_" class="st10" d="M42.2 103.5c-.7 0-1.3-.4-1.5-1v-.1l-3-51.7c-.1-.4-.1-.8.1-1.2.2-.4.6-.7 1-.9l68.8-31.3c.9-.4 1.9.1 2.1.9v.1l4.6 55.5c.2.8-.2 1.8-1.1 2.1l-70.3 27.5c-.2.1-.4.1-.7.1zm-.7-1.2c.2.4.7.6 1.2.4L113 75.2c.5-.2.8-.7.7-1.2v-.1l-4.6-55.5c-.2-.4-.7-.6-1.2-.4L39.1 49.3c-.3.1-.5.3-.6.5-.1.2-.1.4-.1.7v.1l3.1 51.7z"/></g></g></g><g id="XMLID_67_"><g id="XMLID_100_"><path id="XMLID_101_" class="st10" d="m102.4 75.3-2.9-46.6.7-.1 2.9 46.6-.7.1z"/></g><g id="XMLID_98_"><path id="XMLID_99_" class="st10" d="m99.7 76.3-2.9-46.5.7-.1 2.9 46.5-.7.1z"/></g><g id="XMLID_96_"><path id="XMLID_97_" class="st10" d="m96.9 77.3-2.8-46.4.7-.1 2.8 46.5h-.7z"/></g><g id="XMLID_94_"><path id="XMLID_95_" class="st10" d="m94.2 78.3-2.8-46.4h.7l2.8 46.4h-.7z"/></g><g id="XMLID_92_"><path id="XMLID_93_" class="st10" d="M91.4 79.4 88.8 33h.7l2.6 46.3-.7.1z"/></g><g id="XMLID_90_"><path id="XMLID_91_" class="st10" d="m88.7 80.4-2.6-46.3h.7l2.6 46.2-.7.1z"/></g><g id="XMLID_88_"><path id="XMLID_89_" class="st10" d="m85.9 81.4-2.5-46.2h.7l2.5 46.2h-.7z"/></g><g id="XMLID_86_"><path id="XMLID_87_" class="st10" d="m83.2 82.4-2.5-46.1h.7l2.5 46.1h-.7z"/></g><g id="XMLID_84_"><path id="XMLID_85_" class="st10" d="m80.4 83.5-2.3-46.1h.7l2.3 46-.7.1z"/></g><g id="XMLID_82_"><path id="XMLID_83_" class="st10" d="m77.7 84.5-2.3-46h.7l2.3 45.9-.7.1z"/></g><g id="XMLID_80_"><path id="XMLID_81_" class="st10" d="m74.9 85.5-2.2-45.9.7-.1 2.3 46h-.8z"/></g><g id="XMLID_78_"><path id="XMLID_79_" class="st10" d="M72.2 86.5 70 40.7l.7-.1 2.2 45.9h-.7z"/></g><g id="XMLID_76_"><path id="XMLID_77_" class="st10" d="m69.4 87.5-2.1-45.7.8-.1 2.1 45.8h-.8z"/></g><g id="XMLID_74_"><path id="XMLID_75_" class="st10" d="m66.7 88.6-2-45.7.7-.1 2 45.7-.7.1z"/></g><g id="XMLID_72_"><path id="XMLID_73_" class="st10" d="M63.9 89.6 62 43.9h.7l2 45.7h-.8z"/></g><g id="XMLID_70_"><path id="XMLID_71_" class="st10" d="M61.2 90.6 59.3 45h.7l1.9 45.6h-.7z"/></g><g id="XMLID_68_"><path id="XMLID_69_" class="st10" d="m58.5 91.6-1.9-45.5h.8l1.8 45.5h-.7z"/></g></g></g><g id="XMLID_62_"><g id="XMLID_63_" class="st6"><g id="XMLID_64_"><linearGradient id="XMLID_203_" gradientUnits="userSpaceOnUse" x1="79.501" y1="70.534" x2="80.564" y2="104.713"><stop offset="0" style="stop-color:#8dc63f"/><stop offset="1" style="stop-color:#39b54a"/></linearGradient><path id="XMLID_65_" d="M117.6 37.9c1.9-.4 3.4.7 3.5 2.3l-3.2 42.6c.2 1.8-1.3 3.8-3.3 4.5l-72.5 22.5c-2 .6-3.8-.4-3.9-2.2l.2-2.2.1-1.5 3.7-37.4.2-1.9c-.2-1.9 1.3-3.9 3.3-4.6L56 56.9l15.6-4.8c.4 2.9 2.4 4.8 4.5 4.1l35.6-11c2.1-.7 3.6-3.6 3.5-6.6l2.4-.7z" style="fill:url(#XMLID_203_)"/></g></g></g><linearGradient id="XMLID_204_" gradientUnits="userSpaceOnUse" x1="86.184" y1="39.518" x2="86.184" y2="39.518"><stop offset="0" style="stop-color:#0997d0"/><stop offset="1" style="stop-color:#6bcce0"/></linearGradient></g><g id="XMLID_3_"><g id="XMLID_56_"><g id="XMLID_57_" class="st6"><g id="XMLID_58_"><linearGradient id="XMLID_205_" gradientUnits="userSpaceOnUse" x1="105.85" y1="86.948" x2="125.083" y2="155.373"><stop offset="0" style="stop-color:#8dc63f"/><stop offset="1" style="stop-color:#006838"/></linearGradient><path id="XMLID_59_" d="M148.5 89.9c2-.7 4.1.7 4.5 2.9l9.6 48.9c.4 2.3-.9 4.6-2.9 5.3l-72.4 23.1c-2 .6-4.1-.7-4.5-2.9l-9.6-48.9c-.4-2.3.9-4.6 2.9-5.3l2.6-.8-.8-4c-.2-1 .4-2.1 1.3-2.4l23.1-7.4c.5-.2 1.3.3 1.6.5l5.1 3.6 39.5-12.6z" style="fill:url(#XMLID_205_)"/></g></g></g><g id="XMLID_9_"><g id="XMLID_45_"><g id="XMLID_46_"><g id="XMLID_51_"><path id="XMLID_55_" class="st8" d="M87.5 164.1c-.7.3-1.4 0-1.7-.7l-3-51.8c-.2-.7.2-1.4.9-1.7l68.8-31.3c.7-.3 1.4 0 1.7.7l4.6 55.6c.2.7-.2 1.4-.9 1.7l-70.4 27.5z"/><path id="XMLID_52_" class="st9" d="M87 164.6c-.7 0-1.3-.4-1.5-1v-.1l-3-51.7c-.1-.4-.1-.9.1-1.3s.6-.7 1-.9l68.8-31.3c.9-.4 1.9.1 2.1.9v.1l4.6 55.5c.2.8-.2 1.8-1.1 2.1l-70.3 27.5c-.2.1-.5.2-.7.2zm-.8-1.3c.2.4.7.6 1.2.4l70.3-27.5c.5-.2.8-.7.7-1.2v-.1l-4.6-55.5c-.2-.4-.7-.6-1.2-.4l-68.8 31.3c-.3.1-.5.3-.6.5-.1.2-.1.5-.1.7v.1l3.1 51.7z"/></g><g id="XMLID_47_"><path id="XMLID_48_" class="st10" d="M87 164.6c-.7 0-1.3-.4-1.5-1v-.1l-3-51.7c-.1-.4-.1-.9.1-1.3s.6-.7 1-.9l68.8-31.3c.9-.4 1.9.1 2.1.9v.1l4.6 55.5c.2.8-.2 1.8-1.1 2.1l-70.3 27.5c-.2.1-.5.2-.7.2zm-.8-1.3c.2.4.7.6 1.2.4l70.3-27.5c.5-.2.8-.7.7-1.2v-.1l-4.6-55.5c-.2-.4-.7-.6-1.2-.4l-68.8 31.3c-.3.1-.5.3-.6.5-.1.2-.1.5-.1.7v.1l3.1 51.7z"/></g></g></g><g id="XMLID_10_"><g id="XMLID_43_"><path id="XMLID_44_" class="st10" d="m147.2 136.3-3-46.6h.8l2.9 46.6h-.7z"/></g><g id="XMLID_41_"><path id="XMLID_42_" class="st10" d="m144.5 137.3-2.9-46.5h.7l2.9 46.5h-.7z"/></g><g id="XMLID_39_"><path id="XMLID_40_" class="st10" d="m141.7 138.4-2.8-46.5.7-.1 2.8 46.5-.7.1z"/></g><g id="XMLID_37_"><path id="XMLID_38_" class="st10" d="M139 139.4 136.2 93l.7-.1 2.8 46.4-.7.1z"/></g><g id="XMLID_35_"><path id="XMLID_36_" class="st10" d="m136.2 140.4-2.7-46.3.8-.1 2.6 46.4h-.7z"/></g><g id="XMLID_33_"><path id="XMLID_34_" class="st10" d="m133.5 141.4-2.6-46.2.7-.1 2.6 46.3h-.7z"/></g><g id="XMLID_31_"><path id="XMLID_32_" class="st10" d="m130.7 142.5-2.5-46.2.7-.1 2.5 46.2-.7.1z"/></g><g id="XMLID_29_"><path id="XMLID_30_" class="st10" d="m128 143.5-2.5-46.1.7-.1 2.5 46.1-.7.1z"/></g><g id="XMLID_27_"><path id="XMLID_28_" class="st10" d="m125.2 144.5-2.4-46.1h.7l2.4 46.1h-.7z"/></g><g id="XMLID_25_"><path id="XMLID_26_" class="st10" d="m122.5 145.5-2.3-46h.7l2.3 46h-.7z"/></g><g id="XMLID_23_"><path id="XMLID_24_" class="st10" d="m119.7 146.5-2.2-45.9h.7l2.2 45.9h-.7z"/></g><g id="XMLID_21_"><path id="XMLID_22_" class="st10" d="m117 147.6-2.2-45.9h.7l2.2 45.8-.7.1z"/></g><g id="XMLID_19_"><path id="XMLID_20_" class="st10" d="m114.2 148.6-2.1-45.8h.7l2.1 45.8h-.7z"/></g><g id="XMLID_17_"><path id="XMLID_18_" class="st10" d="m111.5 149.6-2-45.7h.7l2 45.7h-.7z"/></g><g id="XMLID_15_"><path id="XMLID_16_" class="st10" d="m108.7 150.6-1.9-45.6h.7l1.9 45.6h-.7z"/></g><g id="XMLID_13_"><path id="XMLID_14_" class="st10" d="m106 151.7-1.9-45.6h.7l1.9 45.5-.7.1z"/></g><g id="XMLID_11_"><path id="XMLID_12_" class="st10" d="m103.2 152.7-1.8-45.5.7-.1 1.8 45.6h-.7z"/></g></g></g><g id="XMLID_5_"><g id="XMLID_6_" class="st6"><g id="XMLID_7_"><linearGradient id="XMLID_206_" gradientUnits="userSpaceOnUse" x1="124.279" y1="131.58" x2="125.341" y2="165.757"><stop offset="0" style="stop-color:#8dc63f"/><stop offset="1" style="stop-color:#39b54a"/></linearGradient><path id="XMLID_8_" d="M162.3 99c1.9-.4 3.4.6 3.5 2.3l-3.2 42.6c.2 1.8-1.3 3.8-3.3 4.5l-72.5 22.5c-2 .6-3.8-.4-4-2.2l.2-2.2.1-1.5 3.7-37.4.2-1.9c-.2-1.9 1.3-3.9 3.3-4.6l10.3-3.2 15.6-4.8c.4 2.9 2.4 4.8 4.5 4.1l35.6-11c2.1-.7 3.6-3.6 3.5-6.6l2.5-.6z" style="fill:url(#XMLID_206_)"/></g></g></g><linearGradient id="XMLID_207_" gradientUnits="userSpaceOnUse" x1="130.966" y1="100.569" x2="130.966" y2="100.569"><stop offset="0" style="stop-color:#0997d0"/><stop offset="1" style="stop-color:#6bcce0"/></linearGradient></g></g></svg>