<svg xmlns="http://www.w3.org/2000/svg" viewBox="251 -244 1914 512" style="enable-background:new 251 -244 1914 512" xml:space="preserve"><style>.st1{fill:#fff}.st3{fill:#ff8c04}</style><g id="Layer_2"><path class="st1" d="M796.1-127.2h34c8.2 0 16.1.9 23.5 2.8 7.4 1.8 13.9 4.8 19.4 8.9 5.5 4.1 9.9 9.5 13.2 16.1 3.2 6.6 4.9 14.6 4.9 24 0 8.3-1.6 15.7-4.7 22-3.2 6.4-7.4 11.7-12.7 16-5.3 4.3-11.5 7.6-18.5 9.8-7 2.2-14.3 3.3-22 3.3h-37.1v-102.9zm22.7 82h11.8c5.2 0 10.1-.5 14.6-1.6s8.4-2.8 11.7-5.3c3.3-2.5 5.9-5.7 7.8-9.7 1.9-4 2.8-8.9 2.8-14.8 0-5-.9-9.4-2.8-13.2-1.9-3.7-4.4-6.8-7.6-9.2-3.2-2.4-7-4.2-11.3-5.5-4.3-1.2-8.8-1.8-13.6-1.8h-13.4v61.1zm174.5-18.7c0 6.1-.9 11.7-2.8 16.9-1.8 5.1-4.6 9.6-8.2 13.4-3.6 3.8-8.2 6.7-13.6 8.9-5.4 2.1-11.7 3.2-18.8 3.2-7.2 0-13.5-1.1-18.9-3.2-5.4-2.1-10-5.1-13.6-8.9-3.6-3.8-6.4-8.2-8.2-13.4-1.8-5.1-2.8-10.8-2.8-16.9v-63.3h22.7v62.4c0 3.2.5 6.2 1.5 8.9s2.4 5.1 4.3 7.1c1.8 2 4 3.5 6.6 4.7 2.6 1.1 5.4 1.7 8.4 1.7s5.8-.6 8.3-1.7c2.5-1.1 4.7-2.7 6.5-4.7 1.8-2 3.3-4.3 4.3-7.1 1-2.7 1.5-5.7 1.5-8.9v-62.4h22.7v63.3zm21-63.3h38.3c5.3 0 10.4.5 15.1 1.5 4.8 1 8.9 2.6 12.4 5s6.4 5.6 8.4 9.6c2.1 4 3.1 9.1 3.1 15.2 0 6-1 11.1-2.9 15.1-1.9 4.1-4.6 7.3-8 9.7-3.4 2.4-7.4 4.1-12.1 5.2-4.7 1-9.7 1.5-15.1 1.5H1037v40.1h-22.7v-102.9zm22.7 43.6h15.1c2 0 4-.2 5.9-.6 1.9-.4 3.6-1 5.1-2 1.5-.9 2.7-2.2 3.6-3.8.9-1.6 1.4-3.6 1.4-6 0-2.6-.6-4.7-1.8-6.3-1.2-1.6-2.8-2.8-4.7-3.7s-4-1.4-6.3-1.7c-2.3-.2-4.6-.4-6.7-.4H1037v24.5zm69.8-43.6h22.7v82h42v20.9h-64.7v-102.9zm76.9 0h22.7v103h-22.7v-103zm110.7 26.8c-2.2-2.7-5-4.8-8.2-6.3-3.3-1.5-7-2.2-11.3-2.2-4.3 0-8.2.8-11.9 2.5-3.6 1.7-6.8 4-9.5 6.9-2.7 3-4.8 6.5-6.3 10.5-1.5 4.1-2.3 8.5-2.3 13.2 0 4.9.8 9.3 2.3 13.3 1.5 4 3.6 7.5 6.2 10.5s5.7 5.3 9.2 6.9c3.5 1.6 7.3 2.5 11.4 2.5 4.7 0 8.8-1 12.4-2.9 3.6-1.9 6.5-4.7 8.9-8.1l18.9 14.1c-4.4 6.1-9.9 10.6-16.6 13.5-6.7 2.9-13.6 4.4-20.7 4.4-8.1 0-15.5-1.3-22.3-3.8-6.8-2.5-12.7-6.1-17.6-10.8-4.9-4.7-8.8-10.4-11.6-17.1-2.8-6.7-4.1-14.2-4.1-22.4s1.4-15.7 4.1-22.4c2.8-6.7 6.6-12.4 11.6-17.1 4.9-4.7 10.8-8.3 17.6-10.8 6.8-2.5 14.2-3.8 22.3-3.8 2.9 0 5.9.3 9.1.8 3.2.5 6.3 1.4 9.3 2.5s6 2.7 8.8 4.7c2.8 1.9 5.3 4.3 7.6 7.1l-17.3 14.3zm66.2-26.8h18.8l44.8 103h-25.6l-8.9-21.8h-40l-8.6 21.8h-25l44.5-103zm8.7 30-12.5 32h25.2l-12.7-32zm71.8-9.9h-29.4v-20.1h81.5v20.1h-29.4v82.9h-22.7v-82.9zm64.4-20.1h70v20.9h-47.3V-87h44.7v20.9h-44.7v20.9h49.9v20.9h-72.6v-102.9z"/><path d="M1639.3-127.2h38.3c5.3 0 10.4.5 15.1 1.5 4.8 1 8.9 2.6 12.4 5s6.4 5.6 8.4 9.6c2.1 4 3.1 9.1 3.1 15.2 0 6-1 11.1-2.9 15.1-1.9 4.1-4.6 7.3-8 9.7-3.4 2.4-7.4 4.1-12.1 5.2-4.7 1-9.7 1.5-15.1 1.5H1662v40.1h-22.7v-102.9zm22.7 43.6h15.1c2 0 4-.2 5.9-.6 1.9-.4 3.6-1 5.1-2 1.5-.9 2.7-2.2 3.6-3.8.9-1.6 1.4-3.6 1.4-6 0-2.6-.6-4.7-1.8-6.3-1.2-1.6-2.8-2.8-4.7-3.7s-4-1.4-6.3-1.7c-2.3-.2-4.6-.4-6.7-.4H1662v24.5zm69-43.6h22.7v38.4h44.1v-38.4h22.7v103h-22.7v-44.5h-44.1v44.5H1731v-103zm104.8 51.5c0-8.2 1.4-15.7 4.1-22.4 2.8-6.7 6.6-12.4 11.6-17.1 4.9-4.7 10.8-8.3 17.6-10.8 6.8-2.5 14.2-3.8 22.3-3.8 8 0 15.5 1.3 22.3 3.8 6.8 2.5 12.7 6.1 17.6 10.8 4.9 4.7 8.8 10.4 11.6 17.1 2.8 6.7 4.1 14.2 4.1 22.4s-1.4 15.7-4.1 22.4c-2.8 6.7-6.6 12.4-11.6 17.1-4.9 4.7-10.8 8.3-17.6 10.8-6.8 2.5-14.2 3.8-22.3 3.8-8.1 0-15.5-1.3-22.3-3.8-6.8-2.5-12.7-6.1-17.6-10.8-4.9-4.7-8.8-10.4-11.6-17.1-2.7-6.7-4.1-14.2-4.1-22.4zm23.6 0c0 4.9.8 9.3 2.3 13.3 1.5 4 3.7 7.5 6.5 10.5s6.2 5.3 10.1 6.9c3.9 1.6 8.3 2.5 13.2 2.5 4.8 0 9.2-.8 13.2-2.5 3.9-1.6 7.3-4 10.1-6.9 2.8-3 5-6.4 6.5-10.5 1.5-4 2.3-8.5 2.3-13.3 0-4.8-.8-9.2-2.3-13.2-1.5-4.1-3.7-7.6-6.5-10.5-2.8-3-6.2-5.3-10.1-6.9-3.9-1.6-8.3-2.5-13.2-2.5-4.9 0-9.2.8-13.2 2.5-3.9 1.7-7.3 4-10.1 6.9-2.8 3-5 6.5-6.5 10.5-1.6 4-2.3 8.4-2.3 13.2zm122.9-31.4h-29.4v-20.1h81.5v20.1H2005v82.9h-22.7v-82.9zm58 31.4c0-8.2 1.4-15.7 4.1-22.4 2.8-6.7 6.6-12.4 11.6-17.1 4.9-4.7 10.8-8.3 17.6-10.8 6.8-2.5 14.2-3.8 22.3-3.8 8 0 15.5 1.3 22.3 3.8 6.8 2.5 12.7 6.1 17.6 10.8 4.9 4.7 8.8 10.4 11.6 17.1 2.8 6.7 4.1 14.2 4.1 22.4s-1.4 15.7-4.1 22.4c-2.8 6.7-6.6 12.4-11.6 17.1-4.9 4.7-10.8 8.3-17.6 10.8-6.8 2.5-14.2 3.8-22.3 3.8-8.1 0-15.5-1.3-22.3-3.8-6.8-2.5-12.7-6.1-17.6-10.8-4.9-4.7-8.8-10.4-11.6-17.1-2.7-6.7-4.1-14.2-4.1-22.4zm23.6 0c0 4.9.8 9.3 2.3 13.3 1.5 4 3.7 7.5 6.5 10.5s6.2 5.3 10.1 6.9c3.9 1.6 8.3 2.5 13.2 2.5 4.8 0 9.2-.8 13.2-2.5 3.9-1.6 7.3-4 10.1-6.9 2.8-3 5-6.4 6.5-10.5 1.5-4 2.3-8.5 2.3-13.3 0-4.8-.8-9.2-2.3-13.2-1.5-4.1-3.7-7.6-6.5-10.5-2.8-3-6.2-5.3-10.1-6.9-3.9-1.6-8.3-2.5-13.2-2.5-4.9 0-9.2.8-13.2 2.5-3.9 1.7-7.3 4-10.1 6.9-2.8 3-5 6.5-6.5 10.5s-2.3 8.4-2.3 13.2z" style="fill:#f47921"/><path class="st1" d="M1909.1-93.9c2.3 0 4.2 1.9 4.2 4.2 0 2.3-1.9 4.2-4.2 4.2s-4.2-1.9-4.2-4.2c0-2.3 1.9-4.2 4.2-4.2zm-42.6 33 14.9-32.1c.6-1.1 1.6-1.3 2.3 0l11.1 17.6 5.5-6.3c1.1-1.2 2.1-1.4 3.1 0l12.5 20.9h-49.4zm246.6-33c2.3 0 4.2 1.9 4.2 4.2 0 2.3-1.9 4.2-4.2 4.2-2.3 0-4.2-1.9-4.2-4.2 0-2.3 1.9-4.2 4.2-4.2zm-42.6 33 14.9-32.1c.6-1.1 1.6-1.3 2.3 0l11.1 17.6 5.5-6.3c1.1-1.2 2.1-1.4 3.1 0l12.5 20.9h-49.4zM942.9 61.5c-4.5-5.5-10-9.7-16.6-12.6-6.6-2.9-14.2-4.4-22.8-4.4-8.6 0-16.6 1.7-24 5-7.3 3.3-13.7 8-19.1 14-5.4 6-9.6 13.1-12.6 21.3-3 8.2-4.6 17.1-4.6 26.7 0 9.8 1.5 18.8 4.6 26.9 3 8.1 7.2 15.2 12.5 21.2s11.5 10.6 18.7 14c7.2 3.3 14.8 5 23.1 5 9.4 0 17.7-2 25-5.9 7.2-3.9 13.2-9.4 17.9-16.5l38.2 28.5c-8.8 12.3-20 21.5-33.5 27.3s-27.4 8.8-41.7 8.8c-16.3 0-31.3-2.5-45-7.6s-25.6-12.4-35.6-21.9c-10-9.5-17.8-21-23.4-34.5-5.6-13.5-8.4-28.6-8.4-45.3 0-16.7 2.8-31.7 8.4-45.3 5.6-13.5 13.4-25 23.4-34.5 10-9.5 21.8-16.8 35.6-21.9 13.7-5.1 28.7-7.6 45-7.6 5.9 0 12 .5 18.4 1.6 6.4 1.1 12.6 2.8 18.8 5.1 6.2 2.4 12.1 5.5 17.8 9.4 5.7 3.9 10.8 8.7 15.3 14.4l-35.4 28.8zm67-54.1h45.9v165.8h84.9v42.3h-130.8V7.4zm157.8 0h141.4v42.3h-95.5v38.8h90.2v42.3h-90.2v42.3h100.8v42.3h-146.7V7.4zm251.9 0h37.9l90.5 208.1h-51.7l-17.9-44.1h-80.8l-17.3 44.1h-50.6l89.9-208.1zm17.7 60.6-25.3 64.7h50.9L1437.3 68zM1569 7.4h62.3l88.5 144.6h.6V7.4h45.9v208.1h-60l-90.8-148.1h-.6v148.1H1569V7.4zm241.3 0h141.4v42.3h-95.5v38.8h90.2v42.3h-90.2v42.3H1957v42.3h-146.7V7.4zm183.4 0h80.5c10.6 0 20.6 1 30.1 3.1s17.8 5.5 25 10.3c7.2 4.8 12.8 11.3 17 19.4 4.2 8.1 6.3 18.3 6.3 30.4 0 14.7-3.8 27.2-11.5 37.5s-18.8 16.8-33.5 19.5l52.9 87.9h-55l-43.5-83.2h-22.6v83.2h-45.9V7.4zm45.8 86.1h27c4.1 0 8.5-.1 13.1-.4 4.6-.3 8.8-1.2 12.5-2.6 3.7-1.5 6.8-3.8 9.3-6.9 2.4-3.1 3.7-7.5 3.7-13.2 0-5.3-1.1-9.5-3.2-12.6-2.2-3.1-4.9-5.5-8.2-7.2-3.3-1.7-7.2-2.8-11.5-3.4-4.3-.6-8.5-.9-12.6-.9h-30v47.2z"/></g><g id="Layer_1"><g id="XMLID_77_"><path id="XMLID_82_" class="st3" d="M763 12c0 141.4-114.6 256-256 256S251 153.4 251 12s114.6-256 256-256S763-129.4 763 12z"/><path id="XMLID_81_" d="M507.7-189.1c111.7 0 202.2 90.5 202.2 202.2 0 111.7-90.5 202.3-202.2 202.3-111.7 0-202.2-90.5-202.2-202.3 0-111.6 90.5-202.2 202.2-202.2z" style="fill:#0059ab"/><path id="XMLID_80_" class="st1" d="m328.2-167.4 13.4 178L559.1-5.8l-13.4-178-217.5 16.4zm176.3 15.3c8.4-.6 15.9 5.7 16.5 14.2.6 8.4-5.7 15.8-14.2 16.5-8.5.6-15.8-5.8-16.5-14.2-.6-8.5 5.7-15.9 14.2-16.5zM357.9-19.9l45.5-121.4c1.8-4.1 5.5-5.2 8.5-.6l45.2 61.2 18.4-24.8c3.8-4.7 7.2-5.7 11.4-.8l51.5 72.9-180.5 13.5z"/><path id="XMLID_79_" class="st1" d="m484.7 11.9-13.2 165L673.1 193l13.1-165-201.5-16.1zM644 51.1c7.8.6 13.7 7.5 13.1 15.4-.6 7.8-7.5 13.7-15.3 13-7.9-.6-13.7-7.5-13.1-15.3.6-7.9 7.5-13.8 15.3-13.1zM490.9 151.3l59-104.6c2.2-3.5 5.8-4 7.9.6l32.7 62.5 20.4-20c4.1-3.8 7.4-4.3 10.5.8l36.8 74.1-167.3-13.4z"/><path id="XMLID_78_" class="st3" d="M369.4 167.1 686.4-97c-8.6-13-18.5-24.9-29.7-35.6l-317 264.1c8.6 12.9 18.5 24.9 29.7 35.6z"/></g><path class="st1" d="M1079-191.2h-2.4v-1.6h6.7v1.6h-2.4v6.8h-1.9v-6.8zm5.2-1.7h2.8l1.9 5.5 1.9-5.5h2.8v8.4h-1.9v-6.4l-2.2 6.4h-1.4l-2.1-6.4v6.4h-1.9v-8.4zm-236.6 2.2-19 33.2h-14.3l.6-10.4-5 10.5h-14.3l-.8-26.1h10.9l-11.1-7.1H809l-2.9 22.4 9.2-22.4h11.3l-2.9 22.4 9.2-22.4h14.7zm26 22h-20.4l-.5 2c-.2.7-.3 1.3-.3 1.7 0 1.5.8 2.2 2.3 2.2 2.1 0 3.4-1.1 4-3.3h13.8c-3 5.9-9.4 8.8-19.3 8.8-9.7 0-14.6-2.9-14.6-8.7 0-1.1.2-2.3.5-3.5l.6-2.2c2.2-8.1 9-12.2 20.6-12.2 9.7 0 14.6 2.9 14.6 8.6 0 1.1-.2 2.3-.6 3.6l-.7 3zm-12.9-4.7.3-.9c.2-.6.3-1.2.3-1.7 0-1.5-.7-2.3-2.3-2.3-2.1 0-3.5 1.3-4.2 4l-.3.9h6.2zm47.7 4c-2.2 8.1-8.2 12.2-18 12.2-2.1 0-3.9-.4-5.4-1.2l-.3 1h-11.9l8.9-33.2h11.9l-2.1 8c1.8-.7 3.8-1.1 6-1.1 8.1 0 12.1 2.7 12.1 8.1 0 1.2-.2 2.6-.6 4l-.6 2.2zm-14.9 2.7 2-7.6c.2-.7.3-1.2.3-1.7 0-1.5-.8-2.2-2.3-2.2-2.1 0-3.5 1.3-4.2 4l-2 7.6c-.2.7-.3 1.2-.3 1.7 0 1.5.8 2.2 2.3 2.2 2.1-.1 3.5-1.4 4.2-4zm56.6 9.3h-14.2l4.8-17.8-10.7 13.3-3.5-13.3-4.8 17.8h-14.2l7-26.1h12.1l-10.2-7.1h14.2l3.5 13.4 10.7-13.4H959l-8.9 33.2zm17 0h-14.2l7-26.1H972l-10.2-7.1H976l-8.9 33.2zm32.8 0H988l4.5-16.9c.2-.7.3-1.2.3-1.7 0-1.5-.8-2.2-2.3-2.2-2.1 0-3.5 1.3-4.2 4l-4.5 16.8h-11.9l7-26.1h11.9l-.2.9c1.9-.7 4.4-1.1 7.6-1.1 5.7 0 8.6 2.2 8.6 6.7 0 1.1-.2 2.4-.6 3.9l-4.3 15.7zm34.6 0h-11.9l.3-1c-1.9.8-3.9 1.2-6 1.2-8.1 0-12.1-2.8-12.1-8.3 0-1.2.2-2.5.6-4l.6-2.2c2.2-8.1 8.2-12.2 18-12.2 2.1 0 3.9.4 5.4 1.1l2.1-8h11.9l-8.9 33.4zm-9.4-9.3 2-7.5c.2-.7.3-1.2.3-1.7 0-1.5-.8-2.2-2.3-2.2-2.1 0-3.5 1.3-4.2 3.9l-2 7.5c-.2.7-.3 1.2-.3 1.7 0 1.5.8 2.2 2.3 2.2 2.1 0 3.5-1.3 4.2-3.9zm50.1-8.8H1062c.1-.3.1-.7.1-.9 0-1.2-.9-1.8-2.6-1.8-2.6 0-3.9.7-3.9 2.2 0 1 1.5 1.7 4.5 2.2 4.7.8 7.7 1.5 8.9 2 2.4 1.1 3.6 2.6 3.6 4.7 0 .5-.1 1.1-.2 1.7-1.5 5.4-7.7 8.1-18.9 8.1-10.2 0-15.2-2.8-14.9-8.3h13.3c-.1.3-.1.6-.1.9 0 1.2 1 1.9 2.9 1.9 2.7 0 4-.7 4-2.2 0-1-1.5-1.7-4.5-2.2-4.7-.8-7.6-1.5-8.9-2-2.4-1-3.6-2.6-3.6-4.7 0-.5.1-1.1.2-1.7 1.5-5.4 7.8-8.2 18.9-8.2 9.9 0 14.7 2.8 14.4 8.3z"/></g></svg>