<svg version="1.1" id="Layer_1" xmlns="http://www.w3.org/2000/svg" x="0" y="0" viewBox="0 0 512 248" style="enable-background:new 0 0 512 248" xml:space="preserve"><style>.st1{fill:#f15a29}.st6{fill:#fff}</style><linearGradient id="XMLID_56_" gradientUnits="userSpaceOnUse" x1="36.875" y1="171.936" x2="36.875" y2="66.736"><stop offset="0" style="stop-color:#f47920"/><stop offset="1" style="stop-color:#faaa68"/></linearGradient><path id="XMLID_65_" d="M.1 172.11.04 67.72l35.14-.05c5.02 0 9.91.49 14.54 1.46 4.64.99 8.67 2.61 12.33 4.95 3.53 2.33 6.38 5.46 8.47 9.31 2.14 3.83 3.17 8.59 3.17 14.56 0 6.53-1.14 11.89-3.4 15.95-2.26 4.02-5.33 7.17-9.13 9.36-3.8 2.21-8.3 3.73-13.38 4.5-5.05.78-10.38 1.18-15.86 1.18H18.67l.05 43.17H.1zm18.62-59.15 11.16-.05c2.47 0 5.16-.1 8.22-.3 2.76-.18 5.42-.76 7.91-1.74 2.39-1 4.35-2.48 5.83-4.42 1.54-1.95 2.29-4.64 2.29-8.22 0-3.22-.68-5.81-2.02-7.72-1.4-1.91-3.18-3.39-5.31-4.39a21.963 21.963 0 0 0-7.2-2.01c-2.44-.27-4.94-.4-7.66-.4H18.72v29.25z" style="fill:url(#XMLID_56_)"/><path id="XMLID_60_" class="st1" d="M35.18 67.72c4.99 0 9.86.48 14.53 1.46 4.65.99 8.72 2.65 12.32 4.94 3.53 2.33 6.35 5.42 8.46 9.29 2.17 3.9 3.17 8.74 3.17 14.53 0 6.57-1.14 11.88-3.39 15.92-2.26 4.02-5.29 7.14-9.11 9.34-3.85 2.25-8.32 3.73-13.36 4.5-5.03.78-10.34 1.18-15.85 1.18H18.67v43.17H.1V67.72h35.08m-16.51 45.24h11.21c2.68 0 5.39-.11 8.23-.3 2.88-.19 5.53-.81 7.93-1.74 2.39-.99 4.36-2.48 5.86-4.44 1.55-1.96 2.3-4.69 2.3-8.25 0-3.23-.68-5.82-2.03-7.75a13.779 13.779 0 0 0-5.33-4.41 21.76 21.76 0 0 0-7.22-2.01c-2.66-.29-5.22-.4-7.67-.4H18.67v29.3m16.51-45.34H-.01v104.56h18.79v-43.17h13.17c5.48 0 10.82-.4 15.87-1.18 5.09-.77 9.59-2.29 13.4-4.51 3.8-2.2 6.88-5.35 9.15-9.38 2.26-4.07 3.4-9.44 3.4-15.98 0-5.97-1.04-10.74-3.18-14.58-2.1-3.85-4.96-6.99-8.49-9.32-3.67-2.35-7.71-3.97-12.35-4.96-4.65-.99-9.55-1.48-14.57-1.48zm-16.4 16.15h13.17c2.71 0 5.22.13 7.65.4 2.51.25 4.92.93 7.18 2 2.12 1 3.9 2.47 5.29 4.37 1.33 1.89 2.01 4.48 2.01 7.68 0 3.57-.74 6.24-2.27 8.19-1.48 1.93-3.43 3.42-5.81 4.41-2.49.97-5.14 1.56-7.89 1.73-3.06.2-5.75.3-8.22.3h-11.1V83.77h-.01z"/><linearGradient id="XMLID_57_" gradientUnits="userSpaceOnUse" x1="133.168" y1="171.936" x2="133.168" y2="66.736"><stop offset="0" style="stop-color:#f47920"/><stop offset="1" style="stop-color:#faaa68"/></linearGradient><path id="XMLID_46_" style="fill:url(#XMLID_57_)" d="m157.5 172.11-.05-46.02-48.69.06.05 45.91-18.61.05-.05-104.39 18.61-.05.05 41.61 48.69-.05-.05-41.51 18.68-.05.06 104.44z"/><path id="XMLID_42_" class="st1" d="M176.13 67.72v104.34H157.5v-45.97h-48.74v45.97H90.2V67.72h18.56v41.56h48.74V67.72h18.63m.11-.1h-18.85v41.56h-48.53V67.61H90.1v104.56h18.78V126.2h48.53v45.97h18.85V67.62h-.02z"/><g id="XMLID_96_"><linearGradient id="XMLID_58_" gradientUnits="userSpaceOnUse" x1="249.117" y1="171.93" x2="249.117" y2="66.744"><stop offset="0" style="stop-color:#f47920"/><stop offset="1" style="stop-color:#faaa68"/></linearGradient><path id="XMLID_97_" d="M248.89 174.78c-7.9 0-15.36-1.32-22.18-3.91-6.75-2.64-12.6-6.35-17.38-11.03-4.91-4.83-8.65-10.46-11.44-17.22-2.76-6.67-4.17-14.17-4.17-22.31 0-8.27 1.4-15.92 4.17-22.76 2.76-6.84 6.61-12.73 11.44-17.48 4.81-4.78 10.66-8.52 17.38-11.11 6.62-2.6 14.08-3.92 22.18-3.92.3 0 .61-.01.91-.01 7.76 0 15.01 1.22 21.53 3.62 6.72 2.45 12.64 6.15 17.6 10.98 4.88 4.85 8.74 10.71 11.47 17.41 2.74 6.76 4.13 14.4 4.13 22.72 0 8.16-1.39 15.65-4.13 22.25-2.73 6.62-6.59 12.43-11.47 17.25-4.86 4.82-10.78 8.64-17.6 11.34-6.69 2.65-14.23 4.06-22.44 4.18zm.19-92.86c-5.46 0-10.39.98-14.65 2.9-4.42 1.94-8.22 4.6-11.3 7.91-3.04 3.32-5.49 7.3-7.28 11.83-1.7 4.53-2.56 9.45-2.56 14.6 0 5.63.84 10.7 2.56 15.48 1.77 4.74 4.22 8.85 7.28 12.21 3.12 3.42 6.92 6.15 11.3 8.1 4.35 1.96 9.28 2.95 14.65 2.95 5.32 0 10.26-.99 14.67-2.95 4.41-1.94 8.24-4.67 11.36-8.1 3.18-3.52 5.64-7.62 7.3-12.21 1.73-4.83 2.57-9.89 2.57-15.48 0-5.12-.86-10.03-2.57-14.6a37.263 37.263 0 0 0-7.3-11.83c-3.13-3.37-6.85-5.95-11.36-7.91-4.39-1.95-9.19-2.9-14.67-2.9z" style="fill:url(#XMLID_58_)"/></g><g id="XMLID_90_"><path id="XMLID_91_" class="st1" d="M249.8 65.08c7.82 0 14.99 1.21 21.51 3.61 6.79 2.48 12.66 6.17 17.58 10.97 4.85 4.82 8.69 10.6 11.46 17.39 2.75 6.79 4.12 14.34 4.12 22.7 0 8.18-1.37 15.59-4.12 22.23-2.77 6.72-6.61 12.44-11.46 17.24-4.92 4.88-10.79 8.63-17.58 11.33-6.77 2.69-14.25 4.06-22.42 4.18-8.01 0-15.43-1.34-22.16-3.91-6.73-2.63-12.53-6.29-17.37-11.02-4.88-4.8-8.67-10.51-11.43-17.2-2.77-6.68-4.16-14.11-4.16-22.29 0-8.33 1.39-15.89 4.16-22.74 2.76-6.84 6.55-12.66 11.43-17.46 4.84-4.81 10.64-8.51 17.37-11.1 6.74-2.65 14.16-3.92 22.16-3.92.3-.01.61-.01.91-.01m-.72 92.87c5.41 0 10.29-1 14.69-2.96 4.42-1.95 8.22-4.64 11.38-8.11 3.11-3.44 5.6-7.52 7.31-12.23 1.7-4.75 2.57-9.87 2.57-15.5 0-5.2-.87-10.06-2.57-14.62-1.7-4.46-4.19-8.43-7.31-11.84-3.16-3.4-6.96-6-11.38-7.92-4.41-1.96-9.29-2.91-14.69-2.91s-10.33.94-14.67 2.91c-4.37 1.91-8.15 4.52-11.31 7.92-3.13 3.41-5.53 7.39-7.29 11.84-1.71 4.56-2.57 9.42-2.57 14.62 0 5.63.86 10.75 2.57 15.5 1.76 4.71 4.16 8.79 7.29 12.23 3.16 3.47 6.95 6.17 11.31 8.11 4.34 1.96 9.27 2.96 14.67 2.96m.72-92.98v.11-.11c-.3 0-.61 0-.91.01-8.1 0-15.57 1.32-22.2 3.93-6.73 2.59-12.59 6.34-17.4 11.13-4.83 4.76-8.69 10.65-11.45 17.5-2.77 6.84-4.17 14.51-4.17 22.78 0 8.14 1.4 15.65 4.17 22.33 2.79 6.77 6.54 12.41 11.45 17.24 4.79 4.69 10.65 8.4 17.4 11.04 6.82 2.6 14.29 3.92 22.2 3.92 8.22-.12 15.77-1.53 22.46-4.19 6.82-2.71 12.75-6.53 17.61-11.35 4.89-4.83 8.75-10.64 11.48-17.27 2.74-6.61 4.13-14.1 4.13-22.27 0-8.33-1.39-15.98-4.13-22.74-2.74-6.71-6.6-12.57-11.48-17.43-4.96-4.84-10.89-8.54-17.62-11-6.52-2.41-13.77-3.63-21.54-3.63zm-.72 92.87c-5.36 0-10.28-.99-14.63-2.95-4.37-1.95-8.17-4.67-11.28-8.09-3.05-3.36-5.5-7.46-7.27-12.19-1.72-4.78-2.56-9.84-2.56-15.46 0-5.15.86-10.06 2.56-14.58 1.79-4.52 4.23-8.49 7.27-11.81 3.07-3.3 6.87-5.96 11.28-7.89 4.25-1.92 9.18-2.9 14.63-2.9 5.48 0 10.27.95 14.65 2.9 4.51 1.95 8.22 4.53 11.34 7.89a36.94 36.94 0 0 1 7.28 11.81c1.7 4.56 2.57 9.47 2.57 14.58 0 5.59-.84 10.65-2.57 15.47-1.66 4.58-4.11 8.68-7.29 12.19-3.12 3.43-6.94 6.15-11.34 8.09-4.4 1.95-9.33 2.94-14.64 2.94z"/></g><linearGradient id="XMLID_59_" gradientUnits="userSpaceOnUse" x1="352.823" y1="171.936" x2="352.823" y2="66.736"><stop offset="0" style="stop-color:#f47920"/><stop offset="1" style="stop-color:#faaa68"/></linearGradient><path id="XMLID_49_" style="fill:url(#XMLID_59_)" d="m343.52 172.11-.05-87.57-31.91.06-.05-16.88 82.57-.05.06 16.87-32.04.06.06 87.51z"/><path id="XMLID_43_" class="st1" d="M394.08 67.72v16.82H362.1v87.52h-18.58V84.54h-31.96V67.72h82.52m.11-.1h-82.74v17.04h31.97v87.52h18.8V84.65h31.98V67.62h-.01z"/><g id="XMLID_107_"><linearGradient id="XMLID_78_" gradientUnits="userSpaceOnUse" x1="456.528" y1="171.93" x2="456.528" y2="66.744"><stop offset="0" style="stop-color:#f47920"/><stop offset="1" style="stop-color:#faaa68"/></linearGradient><path id="XMLID_108_" d="M456.3 174.78c-7.94 0-15.41-1.32-22.21-3.91-6.75-2.65-12.61-6.36-17.42-11.03-4.87-4.81-8.7-10.61-11.4-17.22-2.77-6.7-4.17-14.21-4.17-22.31 0-8.23 1.41-15.89 4.17-22.76 2.71-6.79 6.54-12.68 11.4-17.48 4.83-4.78 10.69-8.52 17.42-11.11 6.6-2.6 14.07-3.92 22.21-3.92.3 0 .61-.01.91-.01 7.74 0 14.97 1.22 21.48 3.62 6.74 2.45 12.66 6.15 17.61 10.98 4.93 4.85 8.8 10.7 11.5 17.41 2.76 6.78 4.17 14.42 4.17 22.72 0 8.14-1.4 15.62-4.17 22.25-2.7 6.62-6.57 12.43-11.5 17.25-4.85 4.82-10.77 8.63-17.6 11.34-6.69 2.65-14.22 4.06-22.4 4.18zm.15-92.86c-5.47 0-10.27.95-14.67 2.9-4.45 1.97-8.22 4.63-11.22 7.91-3.09 3.31-5.49 7.18-7.34 11.83-1.69 4.59-2.55 9.51-2.55 14.6 0 5.57.83 10.63 2.55 15.48 1.83 4.85 4.23 8.85 7.34 12.21 3.03 3.39 6.81 6.12 11.22 8.1 4.49 1.99 9.29 2.95 14.67 2.95 5.3 0 10.25-.99 14.71-2.95 4.38-1.94 8.19-4.66 11.31-8.1 3.15-3.4 5.54-7.39 7.3-12.21 1.71-4.76 2.55-9.82 2.55-15.48 0-5.18-.86-10.1-2.55-14.6-1.76-4.54-4.22-8.52-7.3-11.83-3.13-3.37-6.83-5.96-11.31-7.91-4.43-1.95-9.24-2.9-14.71-2.9z" style="fill:url(#XMLID_78_)"/></g><g id="XMLID_101_"><path id="XMLID_102_" class="st1" d="M457.21 65.08c7.79 0 14.95 1.21 21.46 3.61 6.8 2.48 12.67 6.17 17.59 10.97 4.9 4.82 8.75 10.6 11.49 17.39 2.77 6.79 4.16 14.34 4.16 22.7 0 8.18-1.39 15.59-4.16 22.23-2.74 6.72-6.58 12.44-11.49 17.24-4.91 4.88-10.78 8.63-17.59 11.33-6.76 2.69-14.23 4.06-22.37 4.18-8.07 0-15.48-1.34-22.19-3.91-6.7-2.63-12.53-6.29-17.4-11.02-4.85-4.8-8.66-10.51-11.39-17.2-2.76-6.68-4.17-14.11-4.17-22.29 0-8.33 1.41-15.89 4.17-22.74 2.73-6.84 6.53-12.66 11.39-17.46 4.87-4.81 10.7-8.51 17.4-11.1 6.71-2.65 14.12-3.92 22.19-3.92.3-.01.61-.01.91-.01m-.76 92.87c5.4 0 10.28-1 14.73-2.96 4.41-1.95 8.18-4.64 11.33-8.11 3.19-3.44 5.59-7.52 7.31-12.23 1.71-4.75 2.55-9.87 2.55-15.5 0-5.2-.84-10.06-2.55-14.62-1.73-4.46-4.13-8.43-7.31-11.84-3.15-3.4-6.92-6-11.33-7.92-4.45-1.96-9.33-2.91-14.73-2.91-5.44 0-10.27.94-14.69 2.91-4.33 1.91-8.13 4.52-11.23 7.92-3.18 3.41-5.57 7.39-7.35 11.84-1.68 4.56-2.55 9.42-2.55 14.62 0 5.63.87 10.75 2.55 15.5 1.78 4.71 4.17 8.79 7.35 12.23 3.1 3.47 6.91 6.17 11.23 8.11 4.42 1.96 9.25 2.96 14.69 2.96m.76-92.98v.11-.11c-.3 0-.61 0-.91.01-8.14 0-15.62 1.32-22.23 3.93-6.73 2.6-12.6 6.34-17.43 11.13-4.86 4.81-8.7 10.7-11.41 17.5-2.77 6.88-4.18 14.54-4.18 22.78 0 8.11 1.41 15.62 4.18 22.33 2.7 6.62 6.54 12.42 11.41 17.24 4.82 4.68 10.68 8.39 17.44 11.04 6.8 2.6 14.28 3.92 22.23 3.92 8.19-.12 15.73-1.53 22.41-4.19 6.84-2.71 12.77-6.53 17.62-11.35 4.94-4.83 8.81-10.64 11.51-17.27 2.77-6.63 4.17-14.13 4.17-22.27 0-8.3-1.4-15.95-4.17-22.74-2.7-6.71-6.58-12.58-11.51-17.43-4.95-4.84-10.88-8.54-17.62-11-6.53-2.41-13.76-3.63-21.51-3.63zm-.76 92.87c-5.37 0-10.16-.96-14.65-2.95-4.4-1.98-8.17-4.7-11.2-8.09-3.1-3.36-5.5-7.34-7.33-12.19-1.71-4.84-2.54-9.9-2.54-15.46 0-5.09.86-10 2.54-14.58 1.85-4.63 4.24-8.5 7.33-11.81 2.99-3.27 6.76-5.93 11.2-7.89 4.39-1.95 9.19-2.9 14.65-2.9 5.46 0 10.27.95 14.68 2.9 4.48 1.94 8.17 4.53 11.3 7.89 3.08 3.3 5.54 7.28 7.29 11.81 1.69 4.5 2.54 9.41 2.54 14.58 0 5.66-.83 10.71-2.54 15.46-1.76 4.81-4.15 8.8-7.29 12.19-3.12 3.43-6.92 6.15-11.3 8.09-4.45 1.96-9.39 2.95-14.68 2.95z"/></g><path class="st6" d="M66.44 217.85c-1.39-1.5-2.75-2.5-4.05-3-1.31-.5-2.62-.75-3.94-.75-1.96 0-3.75.35-5.33 1.04-1.6.7-2.97 1.66-4.11 2.9-1.15 1.23-2.03 2.67-2.66 4.32-.63 1.65-.94 3.41-.94 5.31 0 2.04.31 3.91.94 5.63.63 1.71 1.51 3.2 2.66 4.46 1.14 1.25 2.51 2.23 4.11 2.95 1.59.71 3.37 1.08 5.33 1.08 1.53 0 3.03-.37 4.48-1.11 1.45-.73 2.8-1.9 4.05-3.51l5.58 3.97c-1.72 2.36-3.81 4.07-6.27 5.14-2.48 1.08-5.1 1.62-7.89 1.62-2.93 0-5.62-.49-8.07-1.43s-4.56-2.29-6.32-4.02c-1.78-1.73-3.16-3.82-4.17-6.26-.99-2.43-1.5-5.12-1.5-8.1 0-3.04.51-5.8 1.5-8.28 1.01-2.49 2.39-4.6 4.17-6.35 1.76-1.76 3.87-3.11 6.32-4.06 2.45-.95 5.14-1.42 8.07-1.42 2.58 0 4.96.46 7.16 1.37 2.2.9 4.25 2.46 6.15 4.64l-5.27 3.86zm42.86-8.91h6.75v31.87h16.15v6.12h-22.9v-37.99zm60.02 0h25.15v6.12h-18.39v9.33h17.43v6.12h-17.43v10.3h19.36v6.12h-26.12v-37.99zm77.24 0h5.85l16.36 37.98h-7.72l-3.54-8.69h-16.47l-3.43 8.69h-7.57l16.52-37.98zm8.58 23.5-5.85-15.45-5.95 15.45h11.8zm50.05-23.5h8.96l18.4 28.22h.11v-28.22h6.76v37.98h-8.59l-18.78-29.12h-.11v29.12h-6.76v-37.98zm74.88 0h25.15v6.12h-18.4v9.33h17.43v6.12h-17.43v10.3h19.36v6.12h-26.11v-37.99zm64.96 0h13.2c1.82 0 3.59.18 5.29.51 1.69.34 3.21.92 4.53 1.75 1.33.81 2.38 1.93 3.16 3.32.79 1.4 1.19 3.17 1.19 5.31 0 2.75-.76 5.06-2.28 6.92-1.52 1.86-3.7 2.99-6.52 3.38l10.09 16.79h-8.15l-8.81-16.1h-4.93v16.1h-6.76v-37.98zm12.01 16.1c.97 0 1.94-.04 2.89-.13.97-.09 1.86-.31 2.67-.64.8-.34 1.44-.86 1.95-1.56.51-.7.75-1.68.75-2.92 0-1.12-.23-2-.69-2.68-.47-.69-1.08-1.2-1.82-1.53-.76-.34-1.59-.56-2.49-.68-.92-.11-1.79-.15-2.66-.15h-5.85v10.3h5.25zM40.13 1.29H60c3.32 0 6.52.51 9.61 1.52 3.08 1.03 5.81 2.58 8.19 4.67 2.36 2.09 4.27 4.71 5.69 7.87 1.43 3.15 2.13 6.87 2.13 11.13 0 4.32-.81 8.06-2.45 11.22-1.64 3.15-3.76 5.76-6.34 7.83a27.027 27.027 0 0 1-8.62 4.63c-3.15 1.02-6.25 1.53-9.29 1.53H40.13V1.29zM55.8 43.57c2.8 0 5.44-.33 7.93-.96 2.49-.64 4.66-1.65 6.52-2.99 1.85-1.36 3.31-3.11 4.37-5.27 1.08-2.16 1.6-4.78 1.6-7.87 0-3.03-.48-5.64-1.42-7.83-.95-2.18-2.27-3.95-3.96-5.3-1.69-1.36-3.67-2.35-5.98-2.99-2.31-.64-4.83-.96-7.58-.96H49.1v34.17h6.7zm85.84-10.39c0 3.03-.53 5.78-1.56 8.22-1.05 2.44-2.48 4.52-4.27 6.22-1.81 1.72-3.94 3.03-6.41 3.96-2.47.92-5.15 1.38-8.04 1.38-2.9 0-5.58-.46-8.05-1.38-2.48-.93-4.62-2.24-6.44-3.96-1.82-1.7-3.26-3.78-4.27-6.22-1.02-2.44-1.53-5.19-1.53-8.22V1.29h8.97v31.6c0 1.23.19 2.53.56 3.88a10.7 10.7 0 0 0 1.89 3.73c.88 1.15 2.04 2.09 3.49 2.82 1.44.73 3.23 1.1 5.38 1.1 2.13 0 3.93-.37 5.37-1.1 1.45-.73 2.61-1.67 3.49-2.82.88-1.12 1.52-2.38 1.88-3.73.39-1.35.57-2.65.57-3.88V1.29h8.98v31.89zM159.8 1.29h16.93c2.43 0 4.76.24 7.01.71s4.24 1.26 5.95 2.39c1.7 1.12 3.06 2.61 4.08 4.49 1.03 1.87 1.54 4.2 1.54 7.01 0 3.19-.55 5.74-1.64 7.69s-2.56 3.45-4.41 4.52c-1.85 1.07-3.99 1.79-6.44 2.17-2.44.38-4.99.57-7.66.57h-6.39V51.7h-8.97V1.29zm14.37 21.85c1.29 0 2.61-.05 3.99-.15 1.38-.1 2.64-.38 3.81-.85 1.16-.47 2.11-1.18 2.84-2.13.73-.94 1.11-2.28 1.11-3.98 0-1.57-.33-2.82-1-3.74a6.577 6.577 0 0 0-2.56-2.14c-1.04-.5-2.21-.81-3.49-.96-1.28-.14-2.52-.2-3.71-.2h-6.39v14.17h5.4zm36.24-21.85h8.97v42.28h21.42v8.11h-30.39V1.29zm43.84 0h8.97v50.4h-8.97V1.29zm61.72 11.81c-1.85-1.99-3.64-3.32-5.38-3.98-1.73-.66-3.48-1-5.24-1-2.6 0-4.97.46-7.07 1.39-2.12.92-3.93 2.2-5.45 3.84-1.52 1.63-2.7 3.54-3.53 5.73-.83 2.18-1.24 4.54-1.24 7.05 0 2.7.41 5.19 1.24 7.47.83 2.27 2.01 4.25 3.53 5.91 1.52 1.65 3.33 2.96 5.45 3.91 2.1.94 4.47 1.42 7.07 1.42 2.05 0 4.03-.48 5.95-1.45 1.91-.98 3.71-2.53 5.38-4.67l7.4 5.27c-2.27 3.13-5.05 5.41-8.32 6.83-3.27 1.43-6.76 2.13-10.47 2.13-3.89 0-7.46-.63-10.71-1.89-3.25-1.25-6.05-3.03-8.4-5.34-2.35-2.3-4.19-5.06-5.52-8.29-1.33-3.23-1.99-6.81-1.99-10.75 0-4.03.66-7.7 1.99-11 1.34-3.3 3.17-6.11 5.52-8.44 2.35-2.32 5.15-4.11 8.4-5.36 3.25-1.27 6.82-1.9 10.71-1.9 3.42 0 6.58.6 9.51 1.82 2.92 1.21 5.64 3.26 8.15 6.16l-6.98 5.14zm37.58-11.81h7.76l21.71 50.4h-10.26l-4.7-11.53h-21.84l-4.57 11.53h-10.03l21.93-50.4zm11.39 31.17-7.75-20.49-7.91 20.49h15.66zm34.6-23.06H384.1V1.29h39.86V9.4h-15.44v42.28h-8.97V9.4zm37.66-8.11h33.38V9.4h-24.4v12.38h23.12v8.12h-23.12v13.67h25.68v8.11H437.2V1.29z"/><path id="XMLID_5_" style="fill:none;stroke:#fff;stroke-width:.924" d="M0 191.3h512"/><path class="st6" d="M266.69 101.65a4.22 4.22 0 0 1 4.22 4.22c0 2.31-1.9 4.21-4.22 4.21s-4.2-1.9-4.2-4.21a4.197 4.197 0 0 1 4.2-4.22zm-42.76 33.1 14.91-32.21c.57-1.08 1.6-1.3 2.35 0l11.11 17.63 5.53-6.37c1.13-1.21 2.09-1.43 3.12 0l12.58 20.95h-49.6zm249.89-33.1a4.22 4.22 0 0 1 4.22 4.22c0 2.31-1.9 4.21-4.22 4.21s-4.2-1.9-4.2-4.21c0-2.34 1.88-4.22 4.2-4.22zm-42.75 33.1 14.91-32.21c.57-1.08 1.6-1.3 2.35 0l11.11 17.63 5.54-6.37c1.13-1.21 2.09-1.43 3.13 0l12.57 20.95h-49.61z"/></svg>